<?xml version="1.0" standalone="no"?>
<!DOCTYPE svg PUBLIC "-//W3C//DTD SVG 20010904//EN"
 "http://www.w3.org/TR/2001/REC-SVG-20010904/DTD/svg10.dtd">
<svg version="1.0" xmlns="http://www.w3.org/2000/svg"
 width="1000.000000pt" height="1000.000000pt" viewBox="0 0 1000.000000 1000.000000"
 preserveAspectRatio="xMidYMid meet">
<metadata>
Created by potrace 1.11, written by Peter Selinger 2001-2013
</metadata>
<g transform="translate(0.000000,1000.000000) scale(0.100000,-0.100000)"
fill="#000000" stroke="none">
<path d="M7511 9978 c-97 -26 -176 -112 -209 -228 -5 -19 -64 -190 -131 -379
-66 -189 -124 -364 -129 -390 -21 -115 42 -234 155 -290 107 -53 249 -24 326
69 36 42 46 65 127 300 86 247 132 377 173 490 55 153 43 265 -40 352 -63 67
-182 100 -272 76z"/>
<path d="M2140 9718 c-325 -32 -508 -154 -599 -398 -38 -103 -49 -201 -51
-490 -1 -151 -2 -291 -3 -310 l-2 -35 -375 -1 c-438 -2 -514 -7 -606 -45 -16
-7 -31 -13 -34 -14 -92 -26 -244 -146 -326 -255 -32 -44 -72 -120 -97 -185
-47 -124 -46 -83 -44 -1755 1 -866 6 -1586 10 -1600 3 -14 9 -38 13 -53 19
-89 100 -234 177 -318 82 -90 225 -178 347 -212 91 -26 158 -29 558 -30 l382
0 0 -373 c0 -234 4 -393 11 -426 20 -96 75 -196 148 -269 100 -99 208 -154
330 -166 31 -3 564 -6 1186 -7 l1130 -1 2 -1140 c1 -627 4 -1154 6 -1171 22
-154 155 -334 297 -402 140 -66 20 -62 1800 -62 1780 0 1675 -3 1809 63 87 43
195 150 238 237 60 121 63 145 63 562 l0 378 388 1 c213 0 401 2 417 4 188 20
330 88 465 224 70 71 94 103 133 181 89 180 82 19 82 1810 0 872 -4 1607 -9
1634 -28 163 -140 344 -281 453 -82 63 -214 124 -297 138 -18 3 -46 8 -63 12
-16 3 -208 7 -425 9 -217 1 -398 2 -402 3 -4 0 -8 151 -11 334 -4 347 -5 362
-38 467 -78 246 -271 394 -559 426 -36 4 -544 8 -1130 9 -586 2 -1067 3 -1070
4 -4 1 -5 437 -1 536 1 14 14 25 44 37 159 66 317 229 388 400 57 138 58 155
55 718 -2 494 -3 518 -25 599 -76 294 -276 451 -608 477 -112 9 -3337 11
-3423 2z m-650 -3468 l0 -1489 -212 2 -213 2 -68 32 c-123 59 -187 126 -229
241 -21 56 -21 67 -23 1182 -1 1143 1 1237 36 1315 47 107 156 175 312 194 34
4 137 8 229 8 l167 2 1 -1489z m7515 -1320 c146 -47 203 -111 241 -270 4 -14
7 -537 8 -1164 2 -1048 0 -1144 -15 -1206 -36 -140 -132 -239 -280 -288 -45
-15 -86 -18 -249 -18 l-195 1 -2 1479 c-1 813 0 1483 4 1489 3 6 83 8 212 4
176 -4 216 -8 276 -27z"/>
<path d="M9380 9721 c-14 -4 -40 -16 -59 -25 -42 -22 -1049 -1028 -1082 -1081
-119 -192 24 -433 249 -421 33 2 77 12 98 22 26 11 216 193 567 543 418 416
533 537 553 578 66 133 5 302 -132 368 -42 21 -152 30 -194 16z"/>
<path d="M9600 7835 c-36 -13 -126 -44 -200 -70 -74 -25 -144 -50 -155 -55
-11 -5 -65 -24 -120 -44 -264 -92 -268 -94 -326 -170 -86 -114 -68 -276 43
-370 52 -45 132 -70 202 -64 44 4 289 83 381 123 17 7 46 18 65 23 89 26 329
116 365 137 50 29 77 58 107 115 31 60 32 175 3 235 -67 138 -213 194 -365
140z"/>
</g>
</svg>
